Coordinates
version=1
nRows=21
nColumns=22
inDegrees=yes

Units are S.I. units (second, meters, Newtons, ...)
If the header above contains a line with 'inDegrees', this indicates whether rotational values are in degrees (yes) or radians (no).

endheader
time	pelvis_tilt	pelvis_list	pelvis_rotation	pelvis_tx	pelvis_ty	pelvis_tz	hip_flexion_r	hip_adduction_r	hip_rotation_r	knee_angle_r	ankle_angle_r	subtalar_angle_r	hip_flexion_l	hip_adduction_l	hip_rotation_l	knee_angle_l	ankle_angle_l	subtalar_angle_l	lumbar_extension	lumbar_bending	lumbar_rotation
      4.48000000	      2.66396272	      6.90020175	    174.11329899	      0.57041621	      0.95282160	     -0.90252741	     24.25619824	      3.77024441	      2.18492970	    -22.64411093	      0.68380517	      7.70450965	    -16.27189201	     -7.59679478	     39.14041092	    -11.30258269	      9.19068059	     -1.99988724	     -1.18360444	      3.99875678	     -7.07034893
      4.49000000	      2.51374266	      7.10480971	    174.39994731	      0.56222944	      0.95370934	     -0.90620688	     23.70810893	      3.99272130	      1.66903728	    -22.92018138	      0.91326425	      7.63162007	    -16.40134084	     -7.70253226	     39.11882573	    -12.27436436	      8.60342070	     -0.90640881	     -1.09298726	      4.24745314	     -6.87511733
      4.50000000	      2.33270506	      7.27372453	    174.68104094	      0.55405328	      0.95464879	     -0.90977991	     23.09132877	      4.19019918	      1.18852918	    -23.13141979	      1.25856011	      7.47971303	    -16.44342823	     -7.69345978	     39.02978561	    -13.44791818	      7.97837965	      0.41941148	     -1.04253205	      4.45740355	     -6.67906489
      4.51000000	      2.13401933	      7.39542663	    174.95375579	      0.54593244	      0.95561418	     -0.91322635	     22.42556905	      4.35306868	      0.75213899	    -23.28086920	      1.69690549	      7.27341937	    -16.35512380	     -7.54526685	     38.82790892	    -14.86696582	      7.32967995	      2.02811168	     -1.02113993	      4.61835334	     -6.47257811
      4.52000000	      1.93209328	      7.46478191	    175.22359219	      0.53792652	      0.95658490	     -0.91651098	     21.73404906	      4.47174755	      0.35697375	    -23.37641453	      2.21081212	      7.04883088	    -16.08684064	     -7.24424086	     38.47525155	    -16.57796820	      6.66394351	      3.91659161	     -1.01812605	      4.72825659	     -6.26500904
      4.53000000	      1.74846358	      7.48085506	    175.49205984	      0.53011211	      0.95751711	     -0.91960287	     21.05298883	      4.54332915	      0.01000764	    -23.43609663	      2.77566190	      6.83112960	    -15.57256560	     -6.78331120	     37.90876001	    -18.63749227	      6.00725899	      6.06471802	     -1.01673369	      4.79087167	     -6.05702960
      4.54000000	      1.60165772	      7.45874089	    175.76782160	      0.52257754	      0.95837796	     -0.92248574	     20.41415736	      4.57639807	     -0.31197455	    -23.47122455	      3.34002580	      6.64054982	    -14.75311970	     -6.18762310	     37.08039443	    -21.08742034	      5.37641871	      8.43971981	     -1.00743919	      4.82384963	     -5.85509743
      4.55000000	      1.44061605	      7.41142300	    176.08183798	      0.51535932	      0.95921139	     -0.92513169	     19.76581031	      4.56803750	     -0.64895442	    -23.48365467	      3.90789458	      6.48904890	    -13.67419359	     -5.50280056	     36.01257055	    -23.90300101	      4.79797606	     11.07929511	     -1.05345267	      4.83439962	     -5.68439513
      4.56000000	      1.41968947	      7.35018761	    176.39979993	      0.50861621	      0.95977115	     -0.92761530	     19.31617599	      4.55114339	     -0.97435398	    -23.53329350	      4.45236501	      6.35310296	    -12.12443717	     -4.77213921	     34.62829777	    -27.12813116	      4.24435572	     13.67464182	     -0.99452963	      4.84254311	     -5.51613228
      4.57000000	      1.43707362	      7.37216819	    176.74446664	      0.50227028	      0.96017777	     -0.93001360	     18.89889757	      4.63050845	     -1.26247548	    -23.53595413	      4.98629858	      6.23632302	    -10.26835018	     -4.16662865	     32.97723675	    -30.64113856	      3.80781739	     16.29949348	     -0.94245445	      4.94026031	     -5.36961053
      4.58000000	      1.54923303	      7.43423150	    177.12781963	      0.49635141	      0.96036589	     -0.93232404	     18.62123264	      4.74582799	     -1.60317309	    -23.55648284	      5.43428021	      6.11143721	     -8.07292391	     -3.68727967	     31.18893181	    -34.34710006	      3.33866268	     18.63668773	     -0.82763231	      5.07516179	     -5.24772189
      4.59000000	      1.75059491	      7.52825355	    177.54586942	      0.49079537	      0.96032157	     -0.93458502	     18.48143176	      4.88995852	     -1.99027563	    -23.61186032	      5.88923052	      5.95133544	     -5.61209742	     -3.35436572	     29.36924149	    -38.12334335	      2.84655905	     20.30945626	     -0.64395207	      5.23165890	     -5.15093383
      4.60000000	      1.88760607	      7.78572534	    177.96723670	      0.48538439	      0.96034212	     -0.93699623	     18.21523793	      5.23616070	     -2.31958779	    -23.54514797	      6.23090693	      5.76670915	     -3.16080197	     -3.35014068	     27.53206010	    -41.79887579	      2.43102551	     21.89102784	     -0.55059614	      5.53725210	     -5.03087732
      4.61000000	      2.06689086	      8.06080718	    178.40627912	      0.48014583	      0.96024613	     -0.93940436	     18.02345000	      5.59724044	     -2.70052196	    -23.50058608	      6.58700012	      5.57141297	     -0.63287469	     -3.48326191	     25.82418130	    -45.32080322	      2.01206412	     22.34330003	     -0.41312636	      5.84159444	     -4.91671551
      4.62000000	      2.20022400	      8.39529105	    178.83133245	      0.47497018	      0.96022178	     -0.94191113	     17.76091624	      6.04448216	     -3.03548632	    -23.39546113	      6.87705404	      5.34664043	      1.81479824	     -3.79353584	     24.24492370	    -48.60039573	      1.69166123	     22.30462074	     -0.32864518	      6.18447279	     -4.76509893
      4.63000000	      2.33766433	      8.72908892	    179.24106523	      0.46983840	      0.96021228	     -0.94444865	     17.49809758	      6.50338431	     -3.35726126	    -23.26214760	      7.14116871	      5.06797430	      4.21255471	     -4.18062751	     22.82796173	    -51.60404877	      1.47672898	     21.52510474	     -0.23501164	      6.50796267	     -4.59600911
      4.64000000	      2.40957361	      9.05703218	    179.61015400	      0.46466488	      0.96034843	     -0.94701160	     17.13338098	      6.98299809	     -3.59223244	    -23.06392520	      7.35639381	      4.73195356	      6.43691450	     -4.61262764	     21.54149200	    -54.27193776	      1.32429290	     19.61492663	     -0.21087202	      6.81053140	     -4.36705390
      4.65000000	      2.48193943	      9.35702328	    179.98350386	      0.45949028	      0.96051446	     -0.94950487	     16.75689229	      7.43254302	     -3.82376336	    -22.83463268	      7.60016426	      4.46061369	      8.57793964	     -5.03380197	     20.43272617	    -56.62671584	      1.35329988	     17.26728302	     -0.17966147	      7.07311702	     -4.16026005
      4.66000000	      2.50665682	      9.62357445	    180.33146472	      0.45427222	      0.96079996	     -0.95194768	     16.31896937	      7.85310275	     -4.04147900	    -22.58181480	      7.79843279	      4.20598147	     10.56340874	     -5.43297163	     19.42603202	    -58.64030209	      1.48988332	     14.48416544	     -0.20048695	      7.29226686	     -3.90882244
      4.67000000	      2.51460869	      9.84352970	    180.66651176	      0.44902199	      0.96115640	     -0.95429535	     15.84915372	      8.22752468	     -4.23415812	    -22.30278352	      7.98368404	      3.97152178	     12.43361842	     -5.77801496	     18.51672186	    -60.32132612	      1.72624512	     11.59285343	     -0.23748963	      7.45782518	     -3.64945765
      4.68000000	      2.51123983	     10.01885922	    180.99254214	      0.44372839	      0.96156716	     -0.95653383	     15.35079224	      8.55553422	     -4.40740940	    -21.99659474	      8.16840791	      3.75608489	     14.19458183	     -6.06254825	     17.68718771	    -61.67184452	      2.07191058	      8.85569796	     -0.28295361	      7.57416877	     -3.37825501
